<svg aria-hidden="true" style="position: absolute; width: 0; height: 0; overflow: hidden;" version="1.1" xmlns="http://www.w3.org/2000/svg" xmlns:xlink="http://www.w3.org/1999/xlink">
<defs>
<symbol id="icon-cart" viewBox="0 0 32 32">
<path d="M24.251 23.778c-2.048 0-3.736 1.653-3.736 3.736 0 2.048 1.653 3.736 3.736 3.736 2.048 0 3.736-1.653 3.736-3.736-0.036-2.048-1.689-3.736-3.736-3.736z"></path>
<path d="M30.826 5.958c-0.072 0-0.18-0.036-0.287-0.036h-22.634l-0.359-2.407c-0.216-1.581-1.581-2.766-3.198-2.766h-2.91c-0.79 0-1.437 0.647-1.437 1.437s0.647 1.437 1.437 1.437h2.91c0.18 0 0.323 0.144 0.359 0.323l2.228 15.161c0.287 1.904 1.94 3.341 3.88 3.341h14.946c1.868 0 3.485-1.329 3.88-3.162l2.335-11.676c0.144-0.754-0.359-1.509-1.15-1.653z"></path>
<path d="M15.090 27.335c-0.072-1.976-1.725-3.557-3.701-3.557-2.084 0.108-3.665 1.832-3.593 3.88 0.072 1.976 1.689 3.557 3.665 3.557h0.072c2.048-0.108 3.665-1.832 3.557-3.88z"></path>
</symbol>
<symbol id="icon-call" viewBox="0 0 32 32">
<path d="M29.432 21.004c-1.959 0-3.883-0.306-5.706-0.909-0.893-0.305-1.991-0.025-2.537 0.535l-3.598 2.716c-4.173-2.227-6.743-4.797-8.94-8.938l2.636-3.504c0.685-0.684 0.931-1.683 0.636-2.621-0.605-1.832-0.912-3.755-0.912-5.715 0-1.416-1.152-2.568-2.568-2.568h-5.877c-1.416 0-2.568 1.152-2.568 2.568 0 16.229 13.203 29.432 29.432 29.432 1.416 0 2.568-1.152 2.568-2.568v-5.86c-0-1.416-1.152-2.568-2.568-2.568z"></path>
</symbol>
<symbol id="icon-calendar" viewBox="0 0 32 32">
<path d="M28 4h-1.333v-2.667c0-0.736-0.597-1.333-1.334-1.333h-1.333c-0.736 0-1.333 0.597-1.333 1.333v2.667h-13.334v-2.667c0-0.736-0.597-1.333-1.333-1.333h-1.333c-0.736 0-1.333 0.597-1.333 1.333v2.667h-1.333c-2.205 0-4 1.795-4 4v20c0 2.205 1.795 4 4 4h24c2.205 0 4-1.795 4-4v-20c0-2.205-1.795-4-4-4zM29.333 28c0 0.735-0.599 1.333-1.333 1.333h-24c-0.735 0-1.333-0.599-1.333-1.333v-14.613h26.666z"></path>
</symbol>
<symbol id="icon-mail" viewBox="0 0 32 32">
<path d="M31.718 6.358l-9.705 9.642 9.705 9.642c0.175-0.367 0.282-0.772 0.282-1.205v-16.875c0-0.433-0.106-0.838-0.282-1.205z"></path>
<path d="M29.188 4.75h-26.375c-0.433 0-0.838 0.106-1.205 0.282l12.404 12.341c1.097 1.097 2.88 1.097 3.977 0l12.404-12.341c-0.367-0.175-0.772-0.282-1.205-0.282z"></path>
<path d="M0.282 6.358c-0.175 0.367-0.282 0.772-0.282 1.205v16.875c0 0.433 0.106 0.838 0.282 1.205l9.705-9.642-9.705-9.642z"></path>
<path d="M20.688 17.326l-1.373 1.373c-1.827 1.827-4.801 1.827-6.628 0l-1.373-1.373-9.705 9.642c0.367 0.175 0.772 0.282 1.205 0.282h26.375c0.433 0 0.838-0.106 1.205-0.282l-9.705-9.642z"></path>
</symbol>
<symbol id="icon-pin" viewBox="0 0 32 32">
<path d="M25.474 5.48c-1.942-3.352-5.392-5.399-9.227-5.477-0.164-0.003-0.329-0.003-0.492 0-3.836 0.078-7.285 2.126-9.227 5.477-1.985 3.426-2.039 7.541-0.145 11.008l7.935 14.524c0.004 0.006 0.007 0.013 0.011 0.019 0.349 0.607 0.975 0.969 1.673 0.969s1.324-0.362 1.673-0.969c0.004-0.006 0.007-0.013 0.011-0.019l7.935-14.524c1.894-3.467 1.84-7.582-0.145-11.008zM16 14.5c-2.481 0-4.5-2.019-4.5-4.5s2.019-4.5 4.5-4.5 4.5 2.019 4.5 4.5-2.019 4.5-4.5 4.5z"></path>
</symbol>
<symbol id="icon-blob2" viewBox="0 0 32 32">
<path d="M21.152 9.824c2.176 1.824 5.024 2.848 6.464 5.024 1.472 2.176 1.568 5.504-0.192 7.040-1.728 1.504-5.312 1.248-8.192 1.728-2.848 0.48-4.96 1.696-7.488 1.792-2.56 0.064-5.568-0.96-6.208-2.944s1.088-4.896 1.504-8.16c0.448-3.264-0.416-6.848 0.864-8.864s4.704-2.4 7.136-1.28c2.464 1.152 3.968 3.808 6.112 5.664z"></path>
</symbol>
<symbol id="icon-blob1" viewBox="0 0 32 32">
<path d="M24.096 5.664c1.792 2.176 2.176 5.312 2.048 8.032-0.096 2.752-0.736 5.056-1.824 7.264-1.088 2.176-2.656 4.224-4.992 5.792-2.368 1.568-5.472 2.656-8.384 2.080-2.88-0.608-5.536-2.88-6.4-5.6-0.864-2.752 0.096-5.888 1.216-8.48s2.4-4.576 4.128-6.752c1.76-2.144 3.936-4.512 6.592-5.088 2.688-0.576 5.856 0.608 7.616 2.752z"></path>
</symbol>
<symbol id="icon-right" viewBox="0 0 32 32">
<path d="M10.313 18.059h4.69c0.435 0 0.788 0.354 0.788 0.788v1.651c0 0.442 0.229 0.599 0.443 0.599 0.132 0 0.278-0.058 0.424-0.169l5.685-4.313c0.213-0.162 0.331-0.38 0.331-0.615s-0.118-0.454-0.331-0.616l-5.685-4.313c-0.146-0.11-0.292-0.169-0.424-0.169-0.214 0-0.443 0.157-0.443 0.599v1.652c0 0.434-0.354 0.788-0.788 0.788h-4.69c-0.544 0-0.987 0.443-0.987 0.987v2.145c0 0.544 0.443 0.987 0.987 0.987z"></path>
<path d="M16 0c-8.822 0-16 7.178-16 16s7.178 16 16 16c8.822 0 16-7.178 16-16s-7.177-16-16-16zM16 4.174c6.521 0 11.826 5.305 11.826 11.826s-5.305 11.826-11.826 11.826-11.826-5.305-11.826-11.826 5.305-11.826 11.826-11.826z"></path>
</symbol>
<symbol id="icon-ssspot" viewBox="0 0 32 32">
<path d="M17.978 10.443c0 0.122-0.099 0.222-0.221 0.222s-0.221-0.099-0.221-0.222c0-0.122 0.099-0.222 0.221-0.222s0.221 0.099 0.221 0.222z"></path>
<path d="M28.117 12.361c0 0.168-0.136 0.303-0.303 0.303s-0.303-0.136-0.303-0.303c0-0.168 0.136-0.303 0.303-0.303s0.303 0.136 0.303 0.303z"></path>
<path d="M23.236 12.795c0 0.103-0.084 0.187-0.187 0.187s-0.187-0.084-0.187-0.187c0-0.103 0.084-0.187 0.187-0.187s0.187 0.084 0.187 0.187z"></path>
<path d="M16.912 27.629c0 0.165-0.134 0.298-0.298 0.298s-0.298-0.134-0.298-0.298c0-0.165 0.134-0.298 0.298-0.298s0.298 0.134 0.298 0.298z"></path>
<path d="M6.938 14.586c0 0.167-0.135 0.302-0.302 0.302s-0.302-0.135-0.302-0.302c0-0.167 0.135-0.302 0.302-0.302s0.302 0.135 0.302 0.302z"></path>
<path d="M8.132 20.192c0 0.163-0.132 0.295-0.295 0.295s-0.295-0.132-0.295-0.295c0-0.163 0.132-0.295 0.295-0.295s0.295 0.132 0.295 0.295z"></path>
<path d="M25.51 0.638c0 0.101-0.082 0.182-0.182 0.182s-0.182-0.082-0.182-0.182c0-0.101 0.082-0.182 0.182-0.182s0.182 0.082 0.182 0.182z"></path>
<path d="M8.755 5.304c0 0.203-0.164 0.367-0.367 0.367s-0.367-0.164-0.367-0.367c0-0.203 0.164-0.367 0.367-0.367s0.367 0.164 0.367 0.367z"></path>
<path d="M1.367 29.297c0 0.234-0.19 0.423-0.423 0.423s-0.423-0.19-0.423-0.423c0-0.234 0.19-0.423 0.423-0.423s0.423 0.19 0.423 0.423z"></path>
<path d="M5.227 29.4c0 0.134-0.109 0.243-0.243 0.243s-0.243-0.109-0.243-0.243c0-0.134 0.109-0.243 0.243-0.243s0.243 0.109 0.243 0.243z"></path>
<path d="M25.892 14.248c0 0.106-0.086 0.193-0.193 0.193s-0.193-0.086-0.193-0.193c0-0.106 0.086-0.193 0.193-0.193s0.193 0.086 0.193 0.193z"></path>
<path d="M4.654 2.057c0 0.087-0.070 0.157-0.157 0.157s-0.157-0.070-0.157-0.157c0-0.087 0.070-0.157 0.157-0.157s0.157 0.070 0.157 0.157z"></path>
<path d="M12.056 29.941c0 0.196-0.159 0.356-0.356 0.356s-0.356-0.159-0.356-0.356c0-0.196 0.159-0.356 0.356-0.356s0.356 0.159 0.356 0.356z"></path>
<path d="M31.571 20.845c0 0.146-0.118 0.264-0.264 0.264s-0.264-0.118-0.264-0.264c0-0.146 0.118-0.264 0.264-0.264s0.264 0.118 0.264 0.264z"></path>
<path d="M12.471 6.967c0 0.17-0.138 0.308-0.308 0.308s-0.308-0.138-0.308-0.308c0-0.17 0.138-0.308 0.308-0.308s0.308 0.138 0.308 0.308z"></path>
<path d="M8.157 10.071c0 0.179-0.145 0.324-0.324 0.324s-0.324-0.145-0.324-0.324c0-0.179 0.145-0.324 0.324-0.324s0.324 0.145 0.324 0.324z"></path>
<path d="M9.467 13.307c0 0.146-0.118 0.264-0.264 0.264s-0.264-0.118-0.264-0.264c0-0.146 0.118-0.264 0.264-0.264s0.264 0.118 0.264 0.264z"></path>
<path d="M23.724 4.269c0 0.247-0.2 0.446-0.446 0.446s-0.446-0.2-0.446-0.446c0-0.247 0.2-0.446 0.446-0.446s0.446 0.2 0.446 0.446z"></path>
<path d="M30.435 7.619c0 0.108-0.088 0.196-0.196 0.196s-0.196-0.088-0.196-0.196c0-0.108 0.088-0.196 0.196-0.196s0.196 0.088 0.196 0.196z"></path>
<path d="M7.267 0.877c0 0.148-0.12 0.268-0.268 0.268s-0.268-0.12-0.268-0.268c0-0.148 0.12-0.268 0.268-0.268s0.268 0.12 0.268 0.268z"></path>
<path d="M19.581 7.564c0 0.147-0.119 0.266-0.266 0.266s-0.266-0.119-0.266-0.266c0-0.147 0.119-0.266 0.266-0.266s0.266 0.119 0.266 0.266z"></path>
<path d="M29.57 9.692c0 0.084-0.068 0.153-0.153 0.153s-0.153-0.068-0.153-0.153c0-0.084 0.068-0.153 0.153-0.153s0.153 0.068 0.153 0.153z"></path>
<path d="M9.604 20.848c0 0.149-0.12 0.269-0.269 0.269s-0.269-0.12-0.269-0.269c0-0.149 0.12-0.269 0.269-0.269s0.269 0.12 0.269 0.269z"></path>
<path d="M5.913 15.721c0 0.195-0.158 0.352-0.352 0.352s-0.352-0.158-0.352-0.352c0-0.195 0.158-0.352 0.352-0.352s0.352 0.158 0.352 0.352z"></path>
<path d="M19.58 10.559c0 0.094-0.076 0.17-0.17 0.17s-0.17-0.076-0.17-0.17c0-0.094 0.076-0.17 0.17-0.17s0.17 0.076 0.17 0.17z"></path>
<path d="M2.544 9.073c0 0.143-0.116 0.259-0.259 0.259s-0.259-0.116-0.259-0.259c0-0.143 0.116-0.259 0.259-0.259s0.259 0.116 0.259 0.259z"></path>
<path d="M25.267 25.666c0 0.141-0.114 0.255-0.255 0.255s-0.255-0.114-0.255-0.255c0-0.141 0.114-0.255 0.255-0.255s0.255 0.114 0.255 0.255z"></path>
<path d="M16.034 7.631c0 0.112-0.091 0.203-0.203 0.203s-0.203-0.091-0.203-0.203c0-0.112 0.091-0.203 0.203-0.203s0.203 0.091 0.203 0.203z"></path>
<path d="M6.506 2.53c0 0.1-0.081 0.181-0.181 0.181s-0.181-0.081-0.181-0.181c0-0.1 0.081-0.181 0.181-0.181s0.181 0.081 0.181 0.181z"></path>
<path d="M9.23 31.604c0 0.037-0.030 0.066-0.066 0.066s-0.066-0.030-0.066-0.066c0-0.037 0.030-0.066 0.066-0.066s0.066 0.030 0.066 0.066z"></path>
<path d="M7.353 6.232c0 0.171-0.139 0.31-0.31 0.31s-0.31-0.139-0.31-0.31c0-0.171 0.139-0.31 0.31-0.31s0.31 0.139 0.31 0.31z"></path>
<path d="M7.225 8.4c0 0.093-0.076 0.169-0.169 0.169s-0.169-0.076-0.169-0.169c0-0.093 0.076-0.169 0.169-0.169s0.169 0.076 0.169 0.169z"></path>
<path d="M22.75 19.243c0 0.197-0.159 0.356-0.356 0.356s-0.356-0.159-0.356-0.356c0-0.197 0.159-0.356 0.356-0.356s0.356 0.159 0.356 0.356z"></path>
<path d="M17.55 12.276c0 0.13-0.105 0.235-0.235 0.235s-0.235-0.105-0.235-0.235c0-0.13 0.105-0.235 0.235-0.235s0.235 0.105 0.235 0.235z"></path>
<path d="M28.225 30.477c0 0.224-0.182 0.406-0.406 0.406s-0.406-0.182-0.406-0.406c0-0.224 0.182-0.406 0.406-0.406s0.406 0.182 0.406 0.406z"></path>
<path d="M24.775 5.852c0 0.193-0.156 0.349-0.349 0.349s-0.349-0.156-0.349-0.349c0-0.193 0.156-0.349 0.349-0.349s0.349 0.156 0.349 0.349z"></path>
<path d="M21.189 12.892c0 0.097-0.078 0.175-0.175 0.175s-0.175-0.078-0.175-0.175c0-0.097 0.078-0.175 0.175-0.175s0.175 0.078 0.175 0.175z"></path>
<path d="M8.664 28.53c0 0.164-0.133 0.297-0.296 0.297s-0.296-0.133-0.296-0.297c0-0.164 0.133-0.297 0.296-0.297s0.296 0.133 0.296 0.297z"></path>
<path d="M27.287 8.894c0 0.191-0.154 0.345-0.345 0.345s-0.345-0.154-0.345-0.345c0-0.191 0.154-0.345 0.345-0.345s0.345 0.154 0.345 0.345z"></path>
<path d="M2.645 23.122c0 0.155-0.125 0.28-0.28 0.28s-0.28-0.125-0.28-0.28c0-0.155 0.125-0.28 0.28-0.28s0.28 0.125 0.28 0.28z"></path>
<path d="M7.785 11.855c0 0.165-0.134 0.299-0.299 0.299s-0.299-0.134-0.299-0.299c0-0.165 0.134-0.299 0.299-0.299s0.299 0.134 0.299 0.299z"></path>
<path d="M25.267 12.806c0 0.19-0.154 0.343-0.343 0.343s-0.343-0.154-0.343-0.343c0-0.19 0.154-0.343 0.343-0.343s0.343 0.154 0.343 0.343z"></path>
<path d="M12.672 10.394c0 0.112-0.091 0.204-0.204 0.204s-0.204-0.091-0.204-0.204c0-0.112 0.091-0.204 0.204-0.204s0.204 0.091 0.204 0.204z"></path>
<path d="M15.337 10.183c0 0.157-0.127 0.284-0.284 0.284s-0.284-0.127-0.284-0.284c0-0.157 0.127-0.284 0.284-0.284s0.284 0.127 0.284 0.284z"></path>
<path d="M23.644 9.741c0 0.177-0.143 0.32-0.32 0.32s-0.32-0.143-0.32-0.32c0-0.177 0.143-0.32 0.32-0.32s0.32 0.143 0.32 0.32z"></path>
<path d="M18.383 5.958c0 0.132-0.107 0.239-0.238 0.239s-0.238-0.107-0.238-0.239c0-0.132 0.107-0.239 0.238-0.239s0.238 0.107 0.238 0.239z"></path>
<path d="M8.552 25.603c0 0.128-0.104 0.232-0.232 0.232s-0.232-0.104-0.232-0.232c0-0.128 0.104-0.232 0.232-0.232s0.232 0.104 0.232 0.232z"></path>
<path d="M18.050 15.599c0 0.214-0.174 0.388-0.388 0.388s-0.388-0.174-0.388-0.388c0-0.214 0.174-0.388 0.388-0.388s0.388 0.174 0.388 0.388z"></path>
<path d="M29.184 21.607c0 0.119-0.096 0.215-0.215 0.215s-0.215-0.096-0.215-0.215c0-0.119 0.096-0.215 0.215-0.215s0.215 0.096 0.215 0.215z"></path>
<path d="M1.205 19.736c0 0.205-0.166 0.371-0.371 0.371s-0.371-0.166-0.371-0.371c0-0.205 0.166-0.371 0.371-0.371s0.371 0.166 0.371 0.371z"></path>
<path d="M13.466 19.485c0 0.265-0.215 0.48-0.48 0.48s-0.48-0.215-0.48-0.48c0-0.265 0.215-0.48 0.48-0.48s0.48 0.215 0.48 0.48z"></path>
<path d="M16.46 2.664c0 0.176-0.143 0.319-0.319 0.319s-0.319-0.143-0.319-0.319c0-0.176 0.143-0.319 0.319-0.319s0.319 0.143 0.319 0.319z"></path>
<path d="M1.933 12.221c0 0.185-0.15 0.335-0.335 0.335s-0.335-0.15-0.335-0.335c0-0.185 0.15-0.335 0.335-0.335s0.335 0.15 0.335 0.335z"></path>
<path d="M13.486 26.751c0 0.166-0.134 0.3-0.3 0.3s-0.3-0.134-0.3-0.3c0-0.166 0.134-0.3 0.3-0.3s0.3 0.134 0.3 0.3z"></path>
<path d="M24.721 27.971c0 0.214-0.174 0.388-0.388 0.388s-0.388-0.174-0.388-0.388c0-0.214 0.174-0.388 0.388-0.388s0.388 0.174 0.388 0.388z"></path>
<path d="M3.349 0.526c0 0.085-0.069 0.154-0.154 0.154s-0.154-0.069-0.154-0.154c0-0.085 0.069-0.154 0.154-0.154s0.154 0.069 0.154 0.154z"></path>
<path d="M1.391 24.66c0 0.262-0.212 0.474-0.474 0.474s-0.474-0.212-0.474-0.474c0-0.262 0.212-0.474 0.474-0.474s0.474 0.212 0.474 0.474z"></path>
<path d="M15.491 13.197c0 0.196-0.159 0.355-0.355 0.355s-0.355-0.159-0.355-0.355c0-0.196 0.159-0.355 0.355-0.355s0.355 0.159 0.355 0.355z"></path>
<path d="M21.408 15.927c0 0.216-0.175 0.391-0.39 0.391s-0.39-0.175-0.39-0.39c0-0.216 0.175-0.39 0.39-0.39s0.39 0.175 0.39 0.39z"></path>
<path d="M17.25 0.765c0 0.198-0.16 0.359-0.358 0.359s-0.358-0.16-0.358-0.359c0-0.198 0.16-0.358 0.358-0.358s0.358 0.161 0.358 0.358z"></path>
<path d="M10.768 25.244c0 0.186-0.15 0.336-0.336 0.336s-0.336-0.15-0.336-0.336c0-0.186 0.15-0.336 0.336-0.336s0.336 0.15 0.336 0.336z"></path>
<path d="M22.841 22.155c0 0.189-0.153 0.342-0.342 0.342s-0.342-0.153-0.342-0.342c0-0.189 0.153-0.342 0.342-0.342s0.342 0.153 0.342 0.342z"></path>
<path d="M8.342 14.314c0 0.124-0.1 0.224-0.224 0.224s-0.224-0.1-0.224-0.224c0-0.124 0.1-0.224 0.224-0.224s0.224 0.1 0.224 0.224z"></path>
<path d="M25.119 2.893c0 0.106-0.086 0.193-0.193 0.193s-0.193-0.086-0.193-0.193c0-0.106 0.086-0.193 0.193-0.193s0.193 0.086 0.193 0.193z"></path>
<path d="M18.025 7.85c0 0.232-0.188 0.42-0.42 0.42s-0.42-0.188-0.42-0.42c0-0.232 0.188-0.42 0.42-0.42s0.42 0.188 0.42 0.42z"></path>
<path d="M11.745 11.683c0 0.142-0.115 0.258-0.258 0.258s-0.258-0.115-0.258-0.258c0-0.142 0.115-0.258 0.258-0.258s0.258 0.115 0.258 0.258z"></path>
<path d="M23.684 25.828c0 0.179-0.145 0.323-0.323 0.323s-0.323-0.145-0.323-0.323c0-0.179 0.145-0.323 0.323-0.323s0.323 0.145 0.323 0.323z"></path>
<path d="M9.981 10.414c0 0.113-0.092 0.205-0.205 0.205s-0.205-0.092-0.205-0.205c0-0.113 0.092-0.205 0.205-0.205s0.205 0.092 0.205 0.205z"></path>
<path d="M0.902 4.367c0 0.15-0.122 0.272-0.272 0.272s-0.272-0.122-0.272-0.272c0-0.15 0.122-0.272 0.272-0.272s0.272 0.122 0.272 0.272z"></path>
<path d="M19.033 19.885c0 0.215-0.174 0.388-0.388 0.388s-0.388-0.174-0.388-0.388c0-0.215 0.174-0.388 0.388-0.388s0.388 0.174 0.388 0.388z"></path>
<path d="M11.037 9.825c0 0.099-0.080 0.179-0.179 0.179s-0.179-0.080-0.179-0.179c0-0.099 0.080-0.179 0.179-0.179s0.179 0.080 0.179 0.179z"></path>
<path d="M0.813 31.083c0 0.109-0.089 0.198-0.198 0.198s-0.198-0.089-0.198-0.198c0-0.109 0.089-0.198 0.198-0.198s0.198 0.089 0.198 0.198z"></path>
<path d="M8.839 30.335c0 0.075-0.061 0.136-0.136 0.136s-0.136-0.061-0.136-0.136c0-0.075 0.061-0.136 0.136-0.136s0.136 0.061 0.136 0.136z"></path>
<path d="M5.635 2.323c0 0.076-0.062 0.138-0.138 0.138s-0.138-0.062-0.138-0.138c0-0.076 0.062-0.138 0.138-0.138s0.138 0.062 0.138 0.138z"></path>
<path d="M9.286 27.074c0 0.146-0.118 0.265-0.265 0.265s-0.265-0.118-0.265-0.265c0-0.146 0.118-0.265 0.265-0.265s0.265 0.118 0.265 0.265z"></path>
<path d="M4.499 21.952c0 0.148-0.12 0.268-0.268 0.268s-0.268-0.12-0.268-0.268c0-0.148 0.12-0.268 0.268-0.268s0.268 0.12 0.268 0.268z"></path>
<path d="M13.831 28.444c0 0.155-0.126 0.281-0.281 0.281s-0.281-0.126-0.281-0.281c0-0.155 0.126-0.281 0.281-0.281s0.281 0.126 0.281 0.281z"></path>
<path d="M10.707 30.604c0 0.113-0.092 0.205-0.205 0.205s-0.205-0.092-0.205-0.205c0-0.113 0.092-0.205 0.205-0.205s0.205 0.092 0.205 0.205z"></path>
<path d="M21.122 10.231c0 0.128-0.104 0.231-0.231 0.231s-0.231-0.104-0.231-0.231c0-0.128 0.104-0.231 0.231-0.231s0.231 0.104 0.231 0.231z"></path>
<path d="M22.575 27.476c0 0.262-0.212 0.474-0.474 0.474s-0.474-0.212-0.474-0.474c0-0.262 0.212-0.474 0.474-0.474s0.474 0.212 0.474 0.474z"></path>
<path d="M4.952 27.073c0 0.298-0.241 0.539-0.539 0.539s-0.539-0.241-0.539-0.539c0-0.298 0.241-0.539 0.539-0.539s0.539 0.241 0.539 0.539z"></path>
<path d="M29.178 31.5c0 0.109-0.088 0.197-0.197 0.197s-0.197-0.088-0.197-0.197c0-0.109 0.088-0.197 0.197-0.197s0.197 0.088 0.197 0.197z"></path>
<path d="M9.896 29.794c0 0.149-0.121 0.271-0.271 0.271s-0.271-0.121-0.271-0.271c0-0.149 0.121-0.271 0.271-0.271s0.271 0.121 0.271 0.271z"></path>
<path d="M7.851 15.679c0 0.102-0.082 0.184-0.184 0.184s-0.184-0.082-0.184-0.184c0-0.102 0.082-0.184 0.184-0.184s0.184 0.082 0.184 0.184z"></path>
<path d="M14.648 31.352c0 0.153-0.124 0.277-0.277 0.277s-0.277-0.124-0.277-0.277c0-0.153 0.124-0.277 0.277-0.277s0.277 0.124 0.277 0.277z"></path>
<path d="M30.489 21.561c0 0.195-0.158 0.353-0.353 0.353s-0.353-0.158-0.353-0.353c0-0.195 0.158-0.353 0.353-0.353s0.353 0.158 0.353 0.353z"></path>
<path d="M19.506 1.568c0 0.139-0.113 0.252-0.252 0.252s-0.252-0.113-0.252-0.252c0-0.139 0.113-0.252 0.252-0.252s0.252 0.113 0.252 0.252z"></path>
<path d="M30.228 18.419c0 0.155-0.126 0.281-0.281 0.281s-0.281-0.126-0.281-0.281c0-0.155 0.126-0.281 0.281-0.281s0.281 0.126 0.281 0.281z"></path>
<path d="M16.752 9.252c0 0.22-0.178 0.398-0.398 0.398s-0.398-0.178-0.398-0.398c0-0.22 0.178-0.398 0.398-0.398s0.398 0.178 0.398 0.398z"></path>
<path d="M4.246 5.498c0 0.17-0.138 0.308-0.308 0.308s-0.308-0.138-0.308-0.308c0-0.17 0.138-0.308 0.308-0.308s0.308 0.138 0.308 0.308z"></path>
<path d="M23.005 31.249c0 0.191-0.155 0.346-0.346 0.346s-0.346-0.155-0.346-0.346c0-0.191 0.155-0.346 0.346-0.346s0.346 0.155 0.346 0.346z"></path>
<path d="M11.123 22.525c0 0.25-0.203 0.453-0.453 0.453s-0.453-0.203-0.453-0.453c0-0.25 0.203-0.453 0.453-0.453s0.453 0.203 0.453 0.453z"></path>
<path d="M20.856 4.058c0 0.211-0.171 0.383-0.383 0.383s-0.383-0.171-0.383-0.383c0-0.211 0.171-0.383 0.383-0.383s0.383 0.171 0.383 0.383z"></path>
<path d="M23.2 17.396c0 0.134-0.109 0.243-0.243 0.243s-0.243-0.109-0.243-0.243c0-0.134 0.109-0.243 0.243-0.243s0.243 0.109 0.243 0.243z"></path>
<path d="M31.394 13.667c0 0.152-0.124 0.276-0.276 0.276s-0.276-0.124-0.276-0.276c0-0.152 0.124-0.276 0.276-0.276s0.276 0.124 0.276 0.276z"></path>
<path d="M22.302 8.267c0 0.138-0.112 0.25-0.25 0.25s-0.25-0.112-0.25-0.25c0-0.138 0.112-0.25 0.25-0.25s0.25 0.112 0.25 0.25z"></path>
<path d="M16.213 25.644c0 0.164-0.133 0.296-0.296 0.296s-0.296-0.133-0.296-0.296c0-0.164 0.133-0.296 0.296-0.296s0.296 0.133 0.296 0.296z"></path>
<path d="M9.784 17.942c0 0.139-0.112 0.251-0.251 0.251s-0.251-0.112-0.251-0.251c0-0.139 0.112-0.251 0.251-0.251s0.251 0.112 0.251 0.251z"></path>
<path d="M14.379 5.794c0 0.144-0.117 0.261-0.261 0.261s-0.261-0.117-0.261-0.261c0-0.144 0.117-0.261 0.261-0.261s0.261 0.117 0.261 0.261z"></path>
<path d="M31.537 18.885c0 0.109-0.088 0.197-0.197 0.197s-0.197-0.088-0.197-0.197c0-0.109 0.088-0.197 0.197-0.197s0.197 0.088 0.197 0.197z"></path>
<path d="M13.45 4.638c0 0.187-0.152 0.338-0.338 0.338s-0.338-0.152-0.338-0.338c0-0.187 0.152-0.338 0.338-0.338s0.338 0.152 0.338 0.338z"></path>
<path d="M11.488 31.442c0 0.105-0.085 0.19-0.19 0.19s-0.19-0.085-0.19-0.19c0-0.105 0.085-0.19 0.19-0.19s0.19 0.085 0.19 0.19z"></path>
<path d="M11.269 15.192c0 0.144-0.117 0.261-0.261 0.261s-0.261-0.117-0.261-0.261c0-0.144 0.117-0.261 0.261-0.261s0.261 0.117 0.261 0.261z"></path>
<path d="M19.746 24.741c0 0.154-0.125 0.279-0.279 0.279s-0.279-0.125-0.279-0.279c0-0.154 0.125-0.279 0.279-0.279s0.279 0.125 0.279 0.279z"></path>
<path d="M26.429 15.581c0 0.189-0.153 0.342-0.342 0.342s-0.342-0.153-0.342-0.342c0-0.189 0.153-0.342 0.342-0.342s0.342 0.153 0.342 0.342z"></path>
<path d="M4.49 23.563c0 0.122-0.099 0.221-0.221 0.221s-0.221-0.099-0.221-0.221c0-0.122 0.099-0.221 0.221-0.221s0.221 0.099 0.221 0.221z"></path>
<path d="M22.554 3.232c0 0.177-0.143 0.321-0.32 0.321s-0.32-0.143-0.32-0.321c0-0.177 0.143-0.321 0.32-0.321s0.32 0.143 0.32 0.321z"></path>
<path d="M28.876 1.264c0 0.138-0.112 0.251-0.251 0.251s-0.251-0.112-0.251-0.251c0-0.138 0.112-0.251 0.251-0.251s0.251 0.112 0.251 0.251z"></path>
<path d="M14.252 8.334c0 0.118-0.095 0.213-0.213 0.213s-0.213-0.095-0.213-0.213c0-0.118 0.095-0.213 0.213-0.213s0.213 0.095 0.213 0.213z"></path>
<path d="M8.136 13.174c0 0.143-0.116 0.258-0.258 0.258s-0.258-0.116-0.258-0.258c0-0.143 0.116-0.258 0.258-0.258s0.258 0.116 0.258 0.258z"></path>
<path d="M31.597 9.173c0 0.207-0.168 0.374-0.374 0.374s-0.374-0.168-0.374-0.374c0-0.207 0.168-0.374 0.374-0.374s0.374 0.168 0.374 0.374z"></path>
<path d="M12.689 13.526c0 0.258-0.209 0.467-0.467 0.467s-0.467-0.209-0.467-0.467c0-0.258 0.209-0.467 0.467-0.467s0.467 0.209 0.467 0.467z"></path>
<path d="M6.549 10.863c0 0.135-0.11 0.245-0.245 0.245s-0.245-0.11-0.245-0.245c0-0.135 0.11-0.245 0.245-0.245s0.245 0.11 0.245 0.245z"></path>
<path d="M16.126 31.13c0 0.152-0.123 0.275-0.275 0.275s-0.275-0.123-0.275-0.275c0-0.152 0.123-0.275 0.275-0.275s0.275 0.123 0.275 0.275z"></path>
<path d="M6.588 13.208c0 0.195-0.158 0.353-0.353 0.353s-0.353-0.158-0.353-0.353c0-0.195 0.158-0.353 0.353-0.353s0.353 0.158 0.353 0.353z"></path>
<path d="M17.471 25.196c0 0.15-0.122 0.272-0.272 0.272s-0.272-0.122-0.272-0.272c0-0.15 0.122-0.272 0.272-0.272s0.272 0.122 0.272 0.272z"></path>
<path d="M16.725 22.642c0 0.128-0.104 0.233-0.233 0.233s-0.233-0.104-0.233-0.233c0-0.128 0.104-0.233 0.233-0.233s0.233 0.104 0.233 0.233z"></path>
<path d="M19.554 15.472c0 0.152-0.123 0.275-0.275 0.275s-0.275-0.123-0.275-0.275c0-0.152 0.123-0.275 0.275-0.275s0.275 0.123 0.275 0.275z"></path>
<path d="M18.471 27.703c0 0.124-0.101 0.225-0.225 0.225s-0.225-0.101-0.225-0.225c0-0.124 0.101-0.225 0.225-0.225s0.225 0.101 0.225 0.225z"></path>
<path d="M0.965 7.707c0 0.176-0.142 0.318-0.318 0.318s-0.318-0.142-0.318-0.318c0-0.176 0.142-0.318 0.318-0.318s0.318 0.142 0.318 0.318z"></path>
<path d="M27.422 0.851c0 0.169-0.137 0.306-0.306 0.306s-0.306-0.137-0.306-0.306c0-0.169 0.137-0.306 0.306-0.306s0.306 0.137 0.306 0.306z"></path>
<path d="M10.401 5.465c0 0.211-0.171 0.383-0.383 0.383s-0.383-0.171-0.383-0.383c0-0.211 0.171-0.383 0.383-0.383s0.383 0.171 0.383 0.383z"></path>
<path d="M20.473 27.587c0 0.13-0.105 0.236-0.236 0.236s-0.236-0.105-0.236-0.236c0-0.13 0.105-0.236 0.236-0.236s0.236 0.105 0.236 0.236z"></path>
<path d="M28.813 6.876c0 0.118-0.096 0.214-0.214 0.214s-0.214-0.096-0.214-0.214c0-0.118 0.096-0.214 0.214-0.214s0.214 0.096 0.214 0.214z"></path>
<path d="M16.292 29.22c0 0.116-0.094 0.211-0.211 0.211s-0.211-0.094-0.211-0.211c0-0.116 0.094-0.211 0.211-0.211s0.211 0.094 0.211 0.211z"></path>
<path d="M19.193 31.024c0 0.203-0.164 0.367-0.367 0.367s-0.367-0.164-0.367-0.367c0-0.203 0.164-0.367 0.367-0.367s0.367 0.164 0.367 0.367z"></path>
<path d="M21.686 25.485c0 0.189-0.153 0.342-0.342 0.342s-0.342-0.153-0.342-0.342c0-0.189 0.153-0.342 0.342-0.342s0.342 0.153 0.342 0.342z"></path>
<path d="M29.227 10.644c0 0.080-0.065 0.144-0.144 0.144s-0.144-0.065-0.144-0.144c0-0.080 0.065-0.144 0.144-0.144s0.144 0.065 0.144 0.144z"></path>
<path d="M31.512 22.759c0 0.19-0.154 0.345-0.345 0.345s-0.345-0.154-0.345-0.345c0-0.19 0.154-0.345 0.345-0.345s0.345 0.154 0.345 0.345z"></path>
<path d="M20.317 0.536c0 0.104-0.084 0.188-0.188 0.188s-0.188-0.084-0.188-0.188c0-0.104 0.084-0.188 0.188-0.188s0.188 0.084 0.188 0.188z"></path>
<path d="M20.824 22.456c0 0.108-0.087 0.195-0.195 0.195s-0.195-0.087-0.195-0.195c0-0.108 0.087-0.195 0.195-0.195s0.195 0.087 0.195 0.195z"></path>
<path d="M27.347 5.438c0 0.152-0.123 0.275-0.275 0.275s-0.275-0.123-0.275-0.275c0-0.152 0.123-0.275 0.275-0.275s0.275 0.123 0.275 0.275z"></path>
</symbol>
</defs>
</svg>
